<svg xmlns="http://www.w3.org/2000/svg" viewBox="-12 -12 224 224" width="224" height="224"><path d="M48 176V94c0-44 24-74 52-74s52 30 52 74v82l-13-12-13 15-13-14-13 15-13-15-13 14-13-15Z" fill="#F4F1EA" stroke="#0A0A0A" stroke-width="8" stroke-linejoin="round" stroke-linecap="round"/><path d="M64 70c4-18 14-30 28-34" fill="none" stroke="#CFCFCF" stroke-width="9" stroke-linecap="round" stroke-linejoin="round"/><ellipse cx="80" cy="88" rx="10" ry="16" fill="#0A0A0A"/><ellipse cx="120" cy="88" rx="10" ry="16" fill="#0A0A0A"/><circle cx="83" cy="82" r="4" fill="#F4F1EA"/><circle cx="123" cy="82" r="4" fill="#F4F1EA"/><path d="M78 118c10 18 34 18 44 0Z" fill="#0A0A0A" stroke="#0A0A0A" stroke-width="6" stroke-linejoin="round" stroke-linecap="round"/><path d="M98 126c0 18 4 34 10 34s8-12 6-30Z" fill="#7CFF2B" stroke="#0A0A0A" stroke-width="5" stroke-linejoin="round" stroke-linecap="round"/><path d="M40 120c-12 2-18 10-16 20M160 120c12 2 18 10 16 20" fill="none" stroke="#0A0A0A" stroke-width="7" stroke-linejoin="round" stroke-linecap="round"/></svg>