<svg xmlns="http://www.w3.org/2000/svg" viewBox="0 0 512 512"><defs><linearGradient id="vb" x1="0" y1="0" x2="0" y2="1"><stop offset="0" stop-color="#63BDFF"/><stop offset=".55" stop-color="#1B7CFF"/><stop offset="1" stop-color="#0A4ACC"/></linearGradient><radialGradient id="vbi" cx=".4" cy=".35" r=".7"><stop offset="0" stop-color="#7CCBFF"/><stop offset="1" stop-color="#0A4ACC"/></radialGradient></defs><path d="M130 420l-10 48M382 420l10 48" stroke="#0A0A0A" stroke-width="16" stroke-linejoin="round" stroke-linecap="round"/><rect x="70" y="140" width="372" height="282" rx="24" fill="url(#vb)" stroke="#0A0A0A" stroke-width="18" stroke-linejoin="round" stroke-linecap="round"/><path d="M78 150l178 138 178-138" fill="none" stroke="#0A0A0A" stroke-width="18" stroke-linejoin="round" stroke-linecap="round"/><path d="M100 196v80" fill="none" stroke="#CFEBFF" stroke-width="14" stroke-linecap="round" opacity=".9"/><path d="M160 328q96 90 192 0Z" fill="#0A0A0A" stroke="#0A0A0A" stroke-width="14" stroke-linejoin="round" stroke-linecap="round"/><path d="M176 334l18 26 18-20 18 24 18-22 16 22 18-22 18 24 18-22 16 16" fill="#F5E6C8" stroke="#F5E6C8" stroke-width="6" stroke-linejoin="round"/><g transform="translate(150 212)"><ellipse rx="38" ry="30" fill="#F5E6C8" stroke="#0A0A0A" stroke-width="10" stroke-linejoin="round" stroke-linecap="round"/><path d="M-44-4h88" stroke="#0A0A0A" stroke-width="16" stroke-linejoin="round" stroke-linecap="round"/><circle cy="12" r="7" fill="#0A0A0A"/></g><g transform="translate(362 212)"><ellipse rx="38" ry="30" fill="#F5E6C8" stroke="#0A0A0A" stroke-width="10" stroke-linejoin="round" stroke-linecap="round"/><path d="M-44-4h88" stroke="#0A0A0A" stroke-width="16" stroke-linejoin="round" stroke-linecap="round"/><circle cy="12" r="7" fill="#0A0A0A"/></g><circle cx="420" cy="120" r="30" fill="#FF3A1F" stroke="#0A0A0A" stroke-width="12" stroke-linejoin="round" stroke-linecap="round"/><path d="M420 104v18M420 134v2" stroke="#0A0A0A" stroke-width="10" stroke-linejoin="round" stroke-linecap="round"/></svg>