<svg xmlns="http://www.w3.org/2000/svg" viewBox="-12 -12 224 224" width="224" height="224"><path d="M100 16C56 16 28 46 28 88c0 26 11 42 25 51v21c0 9 7 16 16 16h62c9 0 16-7 16-16v-21c14-9 25-25 25-51 0-42-28-72-72-72Z" fill="#F4F1EA" stroke="#0A0A0A" stroke-width="8" stroke-linejoin="round" stroke-linecap="round"/><path d="M42 104c4 18 12 28 22 34" fill="none" stroke="#CFCFCF" stroke-width="10" stroke-linecap="round" stroke-linejoin="round"/><path d="M104 17l-10 20 13 9-11 18" fill="none" stroke="#0A0A0A" stroke-width="6" stroke-linecap="round" stroke-linejoin="round"/><path d="M56 86c0-14 11-22 24-19 11 2 15 13 13 24-3 13-13 19-24 17-9-2-13-11-13-22Z" fill="#0A0A0A"/><path d="M144 86c0-14-11-22-24-19-11 2-15 13-13 24 3 13 13 19 24 17 9-2 13-11 13-22Z" fill="#0A0A0A"/><circle cx="76" cy="88" r="8" fill="#FF3DAE"/><circle cx="124" cy="88" r="8" fill="#FF3DAE"/><circle cx="73" cy="85" r="3" fill="#F4F1EA"/><circle cx="121" cy="85" r="3" fill="#F4F1EA"/><path d="M100 112l-10 15h20Z" fill="#0A0A0A" stroke="#0A0A0A" stroke-width="4" stroke-linejoin="round" stroke-linecap="round"/><path d="M66 150h68M82 140v24M100 140v26M118 140v24" fill="none" stroke="#0A0A0A" stroke-width="6" stroke-linecap="round" stroke-linejoin="round"/><path d="M150 40l16-10M156 52l18-2" fill="none" stroke="#FFD23F" stroke-width="7" stroke-linecap="round"/></svg>