<svg xmlns="http://www.w3.org/2000/svg" viewBox="-12 -12 224 224" width="224" height="224"><path d="M100 8l20 48 50-14-30 44 44 28-52 8 6 52-38-36-38 36 6-52-52-8 44-28-30-44 50 14Z" fill="#FFD23F" stroke="#0A0A0A" stroke-width="8" stroke-linejoin="round" stroke-linecap="round"/><circle cx="82" cy="92" r="10" fill="#0A0A0A"/><circle cx="118" cy="92" r="10" fill="#0A0A0A"/><circle cx="85" cy="89" r="3" fill="#F4F1EA"/><circle cx="121" cy="89" r="3" fill="#F4F1EA"/><path d="M70 112c14 26 46 26 60 0Z" fill="#F4F1EA" stroke="#0A0A0A" stroke-width="6" stroke-linejoin="round" stroke-linecap="round"/><path d="M78 116l6 10 6-10 6 10 6-10 6 10 6-10 6 10 6-10" fill="none" stroke="#0A0A0A" stroke-width="4" stroke-linejoin="round" stroke-linecap="round"/><circle cx="150" cy="40" r="6" fill="#19D3C5"/><circle cx="40" cy="150" r="5" fill="#19D3C5"/></svg>