<svg xmlns="http://www.w3.org/2000/svg" viewBox="-15 -25 230 230" width="256" height="256"><g transform="rotate(0 100 168)"><defs><clipPath id="cl-c-bomber-2"><path d="M100 40.7C140 40.7 150 70.3 150 109.3C150 147.2 131 159 100 159C69 159 50 147.2 50 109.3C50 70.3 60 40.7 100 40.7Z"/></clipPath></defs><ellipse cx="100" cy="176" rx="47.5" ry="7" fill="#0A0A0A" opacity="0.28"/><g transform="translate(57 95.1) rotate(150)"><path d="M-10 -4C-15 21.4 -6 42.8 0 42.8C6 42.8 15 21.4 10 -4Z" fill="#2B2B2B" stroke="#0A0A0A" stroke-width="5" stroke-linejoin="round"/><path d="M-9 25.7Q0 30 9 25.7" stroke="#0A0A0A" stroke-width="3" fill="none"/><path d="M-5 28.3C-5 38.6 5 38.6 5 28.3" fill="#17171F"/></g><g transform="translate(83 168) scale(-1 1)"><path d="M-10 -16H6L8 -4Q20 -3 20 3V6H-12V-14Z" fill="#F5E6C8" stroke="#0A0A0A" stroke-width="4" stroke-linejoin="round"/><rect x="-12" y="2" width="32" height="5" fill="#fff" stroke="#0A0A0A" stroke-width="3"/><circle cx="-2" cy="-10" r="3" fill="#9B4DFF"/><path d="M0 -8l7 3M-1 -3l8 3" stroke="#0A0A0A" stroke-width="2"/></g><g transform="translate(117 168) scale(1 1)"><path d="M-10 -16H6L8 -4Q20 -3 20 3V6H-12V-14Z" fill="#F5E6C8" stroke="#0A0A0A" stroke-width="4" stroke-linejoin="round"/><rect x="-12" y="2" width="32" height="5" fill="#fff" stroke="#0A0A0A" stroke-width="3"/><circle cx="-2" cy="-10" r="3" fill="#9B4DFF"/><path d="M0 -8l7 3M-1 -3l8 3" stroke="#0A0A0A" stroke-width="2"/></g><path d="M100 40.7C140 40.7 150 70.3 150 109.3C150 147.2 131 159 100 159C69 159 50 147.2 50 109.3C50 70.3 60 40.7 100 40.7Z" fill="#17171F"/><g clip-path="url(#cl-c-bomber-2)"><path d="M121 45.9C149 45.9 156 74.9 156 113.1C156 150.2 142.7 161.8 121 161.8C99.3 161.8 86 150.2 86 113.1C86 74.9 93 45.9 121 45.9Z" fill="#0d0d11" opacity=".9"/><path d="M70 64.3Q64 99.8 72 125.9" stroke="#68686d" stroke-width="5" fill="none" stroke-linecap="round" opacity=".7"/><ellipse cx="100" cy="114.8" rx="23" ry="47.3" fill="#FFF8EC"/><rect x="88" y="98.6264" width="24" height="42.4" fill="#FF8A1F"/><polygon points="45,88.6 90,100.6 88,141 45,141" fill="#2B2B2B" stroke="#0A0A0A" stroke-width="5" stroke-linejoin="round" /><polygon points="155,88.6 110,100.6 112,141 155,141" fill="#2B2B2B" stroke="#0A0A0A" stroke-width="5" stroke-linejoin="round" /><rect x="44.99999999999999" y="139" width="110.00000000000001" height="12" fill="#1e1e1e" stroke="#0A0A0A" stroke-width="4"/><path d="M50 143H150M50 147H150" stroke="#0A0A0A" stroke-width="1.5" opacity=".5"/><path d="M74 92.6264Q100 106.6264 126 92.6264" stroke="#1e1e1e" stroke-width="7" fill="none"/><rect x="122.5" y="93.84" width="6" height="18" fill="#1e1e1e" stroke="#0A0A0A" stroke-width="2"/></g><path d="M100 40.7C140 40.7 150 70.3 150 109.3C150 147.2 131 159 100 159C69 159 50 147.2 50 109.3C50 70.3 60 40.7 100 40.7Z" fill="none" stroke="#0A0A0A" stroke-width="5"/><ellipse cx="86" cy="72.6264" rx="19" ry="17" fill="#0A0A0A" stroke="#0A0A0A" stroke-width="6"/><ellipse cx="114" cy="72.6264" rx="19" ry="17" fill="#0A0A0A" stroke="#0A0A0A" stroke-width="6"/><ellipse cx="100" cy="84.6264" rx="19.4" ry="12" fill="#0A0A0A" stroke="#0A0A0A" stroke-width="6"/><ellipse cx="86" cy="72.6264" rx="19" ry="17" fill="#FFF8EC"/><ellipse cx="114" cy="72.6264" rx="19" ry="17" fill="#FFF8EC"/><ellipse cx="100" cy="84.6264" rx="19.4" ry="12" fill="#FFF8EC"/><polygon points="75,66.6264 95,73.6264 94,83.6264 77,80.6264" fill="#0A0A0A"/><polygon points="125,66.6264 105,73.6264 106,83.6264 123,80.6264" fill="#0A0A0A"/><rect x="82" y="75.6264" width="3" height="3" fill="#F5E6C8"/><rect x="112" y="75.6264" width="3" height="3" fill="#F5E6C8"/><polygon points="90.7,87.6 109.4,87.6 106.5,99.1 93.5,99.1" fill="#7a0f12" stroke="#0A0A0A" stroke-width="5" stroke-linejoin="round" /><polygon points="88.7,83.6 111.4,83.6 102,91.7" fill="#FF8A1F" stroke="#0A0A0A" stroke-width="5" stroke-linejoin="round" /><polygon points="93.3,95.7 106.7,95.7 101,103.5" fill="#e0791b" stroke="#0A0A0A" stroke-width="5" stroke-linejoin="round" /><path d="M51 70.6Q47.5 26.7 100 24.7Q152.5 26.7 149 70.6L130 56.6L115 62.6L100 54.6L85 62.6L70 56.6Z" fill="#1FC8B5" stroke="#0A0A0A" stroke-width="5" stroke-linejoin="round"/><path d="M75 34.7Q100 28.7 115 32.7" stroke="#8fe4da" stroke-width="5" fill="none" stroke-linecap="round"/><g transform="translate(143 95.1) rotate(-155)"><path d="M-10 -4C-15 21.4 -6 42.8 0 42.8C6 42.8 15 21.4 10 -4Z" fill="#2B2B2B" stroke="#0A0A0A" stroke-width="5" stroke-linejoin="round"/><path d="M-9 25.7Q0 30 9 25.7" stroke="#0A0A0A" stroke-width="3" fill="none"/><path d="M-5 28.3C-5 38.6 5 38.6 5 28.3" fill="#17171F"/></g></g></svg>