<svg xmlns="http://www.w3.org/2000/svg" viewBox="-15 -25 230 230" width="256" height="256"><g transform="rotate(0 100 168)"><defs><clipPath id="cl-c-chain-2"><path d="M100 47.6C140 47.6 150 75.5 150 112.2C150 147.9 131 159 100 159C69 159 50 147.9 50 112.2C50 75.5 60 47.6 100 47.6Z"/></clipPath></defs><ellipse cx="100" cy="176" rx="47.5" ry="7" fill="#0A0A0A" opacity="0.28"/><g transform="translate(57 98.9) rotate(150)"><path d="M-10 -4C-15 20.2 -6 40.3 0 40.3C6 40.3 15 20.2 10 -4Z" fill="#17171F" stroke="#0A0A0A" stroke-width="5" stroke-linejoin="round"/></g><g transform="translate(83 168) scale(-1 1)"><path d="M-10 -8H6L8 -4Q20 -3 20 3V6H-12V-6Z" fill="#FF3DAE" stroke="#0A0A0A" stroke-width="4" stroke-linejoin="round"/><rect x="-12" y="2" width="32" height="5" fill="#fff" stroke="#0A0A0A" stroke-width="3"/><path d="M0 -8l7 3M-1 -3l8 3" stroke="#0A0A0A" stroke-width="2"/></g><g transform="translate(117 168) scale(1 1)"><path d="M-10 -8H6L8 -4Q20 -3 20 3V6H-12V-6Z" fill="#FF3DAE" stroke="#0A0A0A" stroke-width="4" stroke-linejoin="round"/><rect x="-12" y="2" width="32" height="5" fill="#fff" stroke="#0A0A0A" stroke-width="3"/><path d="M0 -8l7 3M-1 -3l8 3" stroke="#0A0A0A" stroke-width="2"/></g><path d="M100 47.6C140 47.6 150 75.5 150 112.2C150 147.9 131 159 100 159C69 159 50 147.9 50 112.2C50 75.5 60 47.6 100 47.6Z" fill="#17171F"/><g clip-path="url(#cl-c-chain-2)"><path d="M121 52.8C149 52.8 156 80 156 116.1C156 151 142.7 161.9 121 161.9C99.3 161.9 86 151 86 116.1C86 80 93 52.8 121 52.8Z" fill="#0d0d11" opacity=".9"/><path d="M70 69.9Q64 103.3 72 127.8" stroke="#68686d" stroke-width="5" fill="none" stroke-linecap="round" opacity=".7"/><path d="M100 98.9C88 83.3 60 98.9 67 127.1C75 154.5 100 161.2 100 161.2C100 161.2 125 154.5 133 127.1C140 98.9 112 83.3 100 98.9Z" fill="#F2EBDD"/><circle cx="110" cy="131.1" r="6" fill="#17171F" opacity=".85"/><circle cx="87.5" cy="143.1" r="3.5" fill="#17171F" opacity=".85"/></g><path d="M100 47.6C140 47.6 150 75.5 150 112.2C150 147.9 131 159 100 159C69 159 50 147.9 50 112.2C50 75.5 60 47.6 100 47.6Z" fill="none" stroke="#0A0A0A" stroke-width="5"/><path d="M78 103.7Q100 127.7 122 103.7" stroke="#E9B83B" stroke-width="4" fill="none" stroke-dasharray="4 2"/><circle cx="100" cy="121.7" r="5" fill="#E9B83B" stroke="#0A0A0A" stroke-width="2"/><ellipse cx="86" cy="77.7072" rx="19" ry="17" fill="#0A0A0A" stroke="#0A0A0A" stroke-width="6"/><ellipse cx="114" cy="77.7072" rx="19" ry="17" fill="#0A0A0A" stroke="#0A0A0A" stroke-width="6"/><ellipse cx="100" cy="89.7072" rx="20.8" ry="12" fill="#0A0A0A" stroke="#0A0A0A" stroke-width="6"/><ellipse cx="86" cy="77.7072" rx="19" ry="17" fill="#F2EBDD"/><ellipse cx="114" cy="77.7072" rx="19" ry="17" fill="#F2EBDD"/><ellipse cx="100" cy="89.7072" rx="20.8" ry="12" fill="#F2EBDD"/><circle cx="86" cy="79.7072" r="9" fill="#fff" stroke="#0A0A0A" stroke-width="3.5"/><circle cx="114" cy="79.7072" r="9" fill="#fff" stroke="#0A0A0A" stroke-width="3.5"/><circle cx="87" cy="80.7072" r="4.05" fill="#0A0A0A"/><circle cx="115" cy="80.7072" r="4.05" fill="#0A0A0A"/><path d="M75 67.7072l16 5M125 67.7072l-16 5" stroke="#0A0A0A" stroke-width="5" stroke-linecap="round"/><polygon points="86.8,92.7 113.2,92.7 109.2,109.7 90.8,109.7" fill="#7a0f12" stroke="#0A0A0A" stroke-width="5" stroke-linejoin="round" /><polygon points="84.8,88.7 115.2,88.7 102,99.3" fill="#FF8A1F" stroke="#0A0A0A" stroke-width="5" stroke-linejoin="round" /><polygon points="90.5,105 109.5,105 101,115.9" fill="#e0791b" stroke="#0A0A0A" stroke-width="5" stroke-linejoin="round" /><path d="M55 43.6L72 39.6L68.6 67.7L56.7 63.7Z" fill="#FF3A1F" stroke="#0A0A0A" stroke-width="3" stroke-linejoin="round"/><path d="M70 37.6L87 43.6L83.6 70.7L71.7 63.7Z" fill="#FF8A1F" stroke="#0A0A0A" stroke-width="3" stroke-linejoin="round"/><path d="M85 43.6L102 39.6L98.6 73.7L86.7 63.7Z" fill="#FFE81F" stroke="#0A0A0A" stroke-width="3" stroke-linejoin="round"/><path d="M100 37.6L117 43.6L113.6 67.7L101.7 63.7Z" fill="#B4FF1A" stroke="#0A0A0A" stroke-width="3" stroke-linejoin="round"/><path d="M115 43.6L132 39.6L128.6 70.7L116.7 63.7Z" fill="#22E6FF" stroke="#0A0A0A" stroke-width="3" stroke-linejoin="round"/><path d="M130 37.6L147 43.6L143.6 73.7L131.7 63.7Z" fill="#9B4DFF" stroke="#0A0A0A" stroke-width="3" stroke-linejoin="round"/><g transform="translate(143 98.9) rotate(-155)"><path d="M-10 -4C-15 20.2 -6 40.3 0 40.3C6 40.3 15 20.2 10 -4Z" fill="#17171F" stroke="#0A0A0A" stroke-width="5" stroke-linejoin="round"/></g></g></svg>