<svg xmlns="http://www.w3.org/2000/svg" viewBox="-15 -25 230 230" width="256" height="256"><g transform="rotate(0 100 174)"><defs><clipPath id="cl-c-chain-0"><path d="M100 53.6C140 53.6 150 81.5 150 118.2C150 153.9 131 165 100 165C69 165 50 153.9 50 118.2C50 81.5 60 53.6 100 53.6Z"/></clipPath></defs><ellipse cx="100" cy="182" rx="47.5" ry="7" fill="#0A0A0A" opacity="0.28"/><g transform="translate(83 174) scale(-1 1)"><path d="M-10 -8H6L8 -4Q20 -3 20 3V6H-12V-6Z" fill="#FF3DAE" stroke="#0A0A0A" stroke-width="4" stroke-linejoin="round"/><rect x="-12" y="2" width="32" height="5" fill="#fff" stroke="#0A0A0A" stroke-width="3"/><path d="M0 -8l7 3M-1 -3l8 3" stroke="#0A0A0A" stroke-width="2"/></g><g transform="translate(117 174) scale(1 1)"><path d="M-10 -8H6L8 -4Q20 -3 20 3V6H-12V-6Z" fill="#FF3DAE" stroke="#0A0A0A" stroke-width="4" stroke-linejoin="round"/><rect x="-12" y="2" width="32" height="5" fill="#fff" stroke="#0A0A0A" stroke-width="3"/><path d="M0 -8l7 3M-1 -3l8 3" stroke="#0A0A0A" stroke-width="2"/></g><path d="M100 53.6C140 53.6 150 81.5 150 118.2C150 153.9 131 165 100 165C69 165 50 153.9 50 118.2C50 81.5 60 53.6 100 53.6Z" fill="#17171F"/><g clip-path="url(#cl-c-chain-0)"><path d="M121 58.8C149 58.8 156 86 156 122.1C156 157 142.7 167.9 121 167.9C99.3 167.9 86 157 86 122.1C86 86 93 58.8 121 58.8Z" fill="#0d0d11" opacity=".9"/><path d="M70 75.9Q64 109.3 72 133.8" stroke="#68686d" stroke-width="5" fill="none" stroke-linecap="round" opacity=".7"/><path d="M100 104.9C88 89.3 60 104.9 67 133.1C75 160.5 100 167.2 100 167.2C100 167.2 125 160.5 133 133.1C140 104.9 112 89.3 100 104.9Z" fill="#F2EBDD"/><circle cx="110" cy="137.1" r="6" fill="#17171F" opacity=".85"/><circle cx="87.5" cy="149.1" r="3.5" fill="#17171F" opacity=".85"/></g><path d="M100 53.6C140 53.6 150 81.5 150 118.2C150 153.9 131 165 100 165C69 165 50 153.9 50 118.2C50 81.5 60 53.6 100 53.6Z" fill="none" stroke="#0A0A0A" stroke-width="5"/><path d="M78 109.7Q100 133.7 122 109.7" stroke="#E9B83B" stroke-width="4" fill="none" stroke-dasharray="4 2"/><circle cx="100" cy="127.7" r="5" fill="#E9B83B" stroke="#0A0A0A" stroke-width="2"/><ellipse cx="86" cy="83.7072" rx="19" ry="17" fill="#0A0A0A" stroke="#0A0A0A" stroke-width="6"/><ellipse cx="114" cy="83.7072" rx="19" ry="17" fill="#0A0A0A" stroke="#0A0A0A" stroke-width="6"/><ellipse cx="100" cy="95.7072" rx="20.8" ry="12" fill="#0A0A0A" stroke="#0A0A0A" stroke-width="6"/><ellipse cx="86" cy="83.7072" rx="19" ry="17" fill="#F2EBDD"/><ellipse cx="114" cy="83.7072" rx="19" ry="17" fill="#F2EBDD"/><ellipse cx="100" cy="95.7072" rx="20.8" ry="12" fill="#F2EBDD"/><circle cx="86" cy="85.7072" r="9" fill="#fff" stroke="#0A0A0A" stroke-width="3.5"/><circle cx="114" cy="85.7072" r="9" fill="#fff" stroke="#0A0A0A" stroke-width="3.5"/><circle cx="87" cy="86.7072" r="4.05" fill="#0A0A0A"/><circle cx="115" cy="86.7072" r="4.05" fill="#0A0A0A"/><path d="M75 73.7072l16 5M125 73.7072l-16 5" stroke="#0A0A0A" stroke-width="5" stroke-linecap="round"/><polygon points="86.8,96.7 113.2,96.7 102,112.3" fill="#FF8A1F" stroke="#0A0A0A" stroke-width="5" stroke-linejoin="round" /><path d="M91.8 99.7H102" stroke="#ffc58f" stroke-width="3" stroke-linecap="round"/><path d="M55 49.6L72 45.6L68.6 73.7L56.7 69.7Z" fill="#FF3A1F" stroke="#0A0A0A" stroke-width="3" stroke-linejoin="round"/><path d="M70 43.6L87 49.6L83.6 76.7L71.7 69.7Z" fill="#FF8A1F" stroke="#0A0A0A" stroke-width="3" stroke-linejoin="round"/><path d="M85 49.6L102 45.6L98.6 79.7L86.7 69.7Z" fill="#FFE81F" stroke="#0A0A0A" stroke-width="3" stroke-linejoin="round"/><path d="M100 43.6L117 49.6L113.6 73.7L101.7 69.7Z" fill="#B4FF1A" stroke="#0A0A0A" stroke-width="3" stroke-linejoin="round"/><path d="M115 49.6L132 45.6L128.6 76.7L116.7 69.7Z" fill="#22E6FF" stroke="#0A0A0A" stroke-width="3" stroke-linejoin="round"/><path d="M130 43.6L147 49.6L143.6 79.7L131.7 69.7Z" fill="#9B4DFF" stroke="#0A0A0A" stroke-width="3" stroke-linejoin="round"/><g transform="translate(57 104.9) rotate(18)"><path d="M-10 -4C-15 20.2 -6 40.3 0 40.3C6 40.3 15 20.2 10 -4Z" fill="#17171F" stroke="#0A0A0A" stroke-width="5" stroke-linejoin="round"/></g><g transform="translate(143 104.9) rotate(-18)"><path d="M-10 -4C-15 20.2 -6 40.3 0 40.3C6 40.3 15 20.2 10 -4Z" fill="#17171F" stroke="#0A0A0A" stroke-width="5" stroke-linejoin="round"/></g></g></svg>