<svg xmlns="http://www.w3.org/2000/svg" viewBox="-15 -25 230 230" width="256" height="256"><g transform="rotate(0 100 174)"><defs><clipPath id="cl-c-flannel-0"><path d="M100 60.6C140 60.6 150 86.7 150 121.2C150 154.6 131 165 100 165C69 165 50 154.6 50 121.2C50 86.7 60 60.6 100 60.6Z"/></clipPath><pattern id="pl-c-flannel-0" width="16" height="16" patternUnits="userSpaceOnUse"><rect width="16" height="16" fill="#C0281C"/><rect width="16" height="6" y="5" fill="#861c14" opacity=".7"/><rect width="6" height="16" x="5" fill="#861c14" opacity=".6"/><rect width="16" height="1.5" y="13" fill="#F5E6C8" opacity=".7"/></pattern></defs><ellipse cx="100" cy="182" rx="47.5" ry="7" fill="#0A0A0A" opacity="0.28"/><circle cx="53.2" cy="79.1" r="21" fill="#9B4DFF" stroke="#0A0A0A" stroke-width="5"/><circle cx="54.1" cy="67.9" r="21" fill="#9B4DFF" stroke="#0A0A0A" stroke-width="5"/><circle cx="63.6" cy="57.9" r="21" fill="#9B4DFF" stroke="#0A0A0A" stroke-width="5"/><circle cx="79.9" cy="51" r="21" fill="#9B4DFF" stroke="#0A0A0A" stroke-width="5"/><circle cx="100" cy="48.6" r="21" fill="#9B4DFF" stroke="#0A0A0A" stroke-width="5"/><circle cx="120.1" cy="51" r="21" fill="#9B4DFF" stroke="#0A0A0A" stroke-width="5"/><circle cx="136.4" cy="57.9" r="21" fill="#9B4DFF" stroke="#0A0A0A" stroke-width="5"/><circle cx="145.9" cy="67.9" r="21" fill="#9B4DFF" stroke="#0A0A0A" stroke-width="5"/><circle cx="146.8" cy="79.1" r="21" fill="#9B4DFF" stroke="#0A0A0A" stroke-width="5"/><ellipse cx="100" cy="66.6" rx="52.5" ry="27.5" fill="#9B4DFF"/><g transform="translate(83 174) scale(-1 1)"><path d="M-10 -8H6L8 -4Q20 -3 20 3V6H-12V-6Z" fill="#17171F" stroke="#0A0A0A" stroke-width="4" stroke-linejoin="round"/><rect x="-12" y="2" width="32" height="5" fill="#F5E6C8" stroke="#0A0A0A" stroke-width="3"/><path d="M0 -8l7 3M-1 -3l8 3" stroke="#0A0A0A" stroke-width="2"/></g><g transform="translate(117 174) scale(1 1)"><path d="M-10 -8H6L8 -4Q20 -3 20 3V6H-12V-6Z" fill="#17171F" stroke="#0A0A0A" stroke-width="4" stroke-linejoin="round"/><rect x="-12" y="2" width="32" height="5" fill="#F5E6C8" stroke="#0A0A0A" stroke-width="3"/><path d="M0 -8l7 3M-1 -3l8 3" stroke="#0A0A0A" stroke-width="2"/></g><path d="M100 60.6C140 60.6 150 86.7 150 121.2C150 154.6 131 165 100 165C69 165 50 154.6 50 121.2C50 86.7 60 60.6 100 60.6Z" fill="#17171F"/><g clip-path="url(#cl-c-flannel-0)"><path d="M121 65.6C149 65.6 156 91.2 156 125C156 157.7 142.7 168 121 168C99.3 168 86 157.7 86 125C86 91.2 93 65.6 121 65.6Z" fill="#0d0d11" opacity=".9"/><path d="M70 81.5Q64 112.8 72 135.8" stroke="#68686d" stroke-width="5" fill="none" stroke-linecap="round" opacity=".7"/><ellipse cx="100" cy="129.5" rx="31" ry="34.5" fill="#F5E6C8"/><polygon points="45,104.8 88,114.8 82,157 45,159" fill="url(#pl-c-flannel-0)" stroke="#0A0A0A" stroke-width="5" stroke-linejoin="round" /><polygon points="155,104.8 112,114.8 118,157 155,159" fill="url(#pl-c-flannel-0)" stroke="#0A0A0A" stroke-width="5" stroke-linejoin="round" /><polygon points="88,112.8 70,106.8 78,128.8" fill="#861c14" stroke="#0A0A0A" stroke-width="5" stroke-linejoin="round" /><polygon points="112,112.8 130,106.8 122,128.8" fill="#861c14" stroke="#0A0A0A" stroke-width="5" stroke-linejoin="round" /></g><path d="M100 60.6C140 60.6 150 86.7 150 121.2C150 154.6 131 165 100 165C69 165 50 154.6 50 121.2C50 86.7 60 60.6 100 60.6Z" fill="none" stroke="#0A0A0A" stroke-width="5"/><ellipse cx="86" cy="88.788" rx="19" ry="17" fill="#0A0A0A" stroke="#0A0A0A" stroke-width="6"/><ellipse cx="114" cy="88.788" rx="19" ry="17" fill="#0A0A0A" stroke="#0A0A0A" stroke-width="6"/><ellipse cx="100" cy="100.788" rx="21.6" ry="12" fill="#0A0A0A" stroke="#0A0A0A" stroke-width="6"/><ellipse cx="86" cy="88.788" rx="19" ry="17" fill="#F5E6C8"/><ellipse cx="114" cy="88.788" rx="19" ry="17" fill="#F5E6C8"/><ellipse cx="100" cy="100.788" rx="21.6" ry="12" fill="#F5E6C8"/><circle cx="86" cy="90.788" r="9" fill="#fff" stroke="#0A0A0A" stroke-width="3.5"/><circle cx="114" cy="90.788" r="9" fill="#fff" stroke="#0A0A0A" stroke-width="3.5"/><circle cx="87" cy="91.788" r="4.05" fill="#0A0A0A"/><circle cx="115" cy="91.788" r="4.05" fill="#0A0A0A"/><polygon points="84.6,101.8 115.4,101.8 102,120" fill="#FF8A1F" stroke="#0A0A0A" stroke-width="5" stroke-linejoin="round" /><path d="M89.6 104.8H102" stroke="#ffc58f" stroke-width="3" stroke-linecap="round"/><g transform="translate(57 108.6) rotate(18)"><path d="M-10 -4C-15 18.9 -6 37.8 0 37.8C6 37.8 15 18.9 10 -4Z" fill="#C0281C" stroke="#0A0A0A" stroke-width="5" stroke-linejoin="round"/><path d="M-9 22.7Q0 26.5 9 22.7" stroke="#0A0A0A" stroke-width="3" fill="none"/><path d="M-5 24.9C-5 34 5 34 5 24.9" fill="#17171F"/></g><g transform="translate(143 108.6) rotate(-18)"><path d="M-10 -4C-15 18.9 -6 37.8 0 37.8C6 37.8 15 18.9 10 -4Z" fill="#C0281C" stroke="#0A0A0A" stroke-width="5" stroke-linejoin="round"/><path d="M-9 22.7Q0 26.5 9 22.7" stroke="#0A0A0A" stroke-width="3" fill="none"/><path d="M-5 24.9C-5 34 5 34 5 24.9" fill="#17171F"/></g></g></svg>