<svg xmlns="http://www.w3.org/2000/svg" viewBox="-15 -25 230 230" width="256" height="256"><g transform="rotate(0 100 168)"><defs><clipPath id="cl-c-flannel-2"><path d="M100 54.6C140 54.6 150 80.7 150 115.2C150 148.6 131 159 100 159C69 159 50 148.6 50 115.2C50 80.7 60 54.6 100 54.6Z"/></clipPath><pattern id="pl-c-flannel-2" width="16" height="16" patternUnits="userSpaceOnUse"><rect width="16" height="16" fill="#C0281C"/><rect width="16" height="6" y="5" fill="#861c14" opacity=".7"/><rect width="6" height="16" x="5" fill="#861c14" opacity=".6"/><rect width="16" height="1.5" y="13" fill="#F5E6C8" opacity=".7"/></pattern></defs><ellipse cx="100" cy="176" rx="47.5" ry="7" fill="#0A0A0A" opacity="0.28"/><circle cx="53.2" cy="73.1" r="21" fill="#9B4DFF" stroke="#0A0A0A" stroke-width="5"/><circle cx="54.1" cy="61.9" r="21" fill="#9B4DFF" stroke="#0A0A0A" stroke-width="5"/><circle cx="63.6" cy="51.9" r="21" fill="#9B4DFF" stroke="#0A0A0A" stroke-width="5"/><circle cx="79.9" cy="45" r="21" fill="#9B4DFF" stroke="#0A0A0A" stroke-width="5"/><circle cx="100" cy="42.6" r="21" fill="#9B4DFF" stroke="#0A0A0A" stroke-width="5"/><circle cx="120.1" cy="45" r="21" fill="#9B4DFF" stroke="#0A0A0A" stroke-width="5"/><circle cx="136.4" cy="51.9" r="21" fill="#9B4DFF" stroke="#0A0A0A" stroke-width="5"/><circle cx="145.9" cy="61.9" r="21" fill="#9B4DFF" stroke="#0A0A0A" stroke-width="5"/><circle cx="146.8" cy="73.1" r="21" fill="#9B4DFF" stroke="#0A0A0A" stroke-width="5"/><ellipse cx="100" cy="60.6" rx="52.5" ry="27.5" fill="#9B4DFF"/><g transform="translate(57 102.6) rotate(135)"><path d="M-10 -4C-15 18.9 -6 37.8 0 37.8C6 37.8 15 18.9 10 -4Z" fill="#C0281C" stroke="#0A0A0A" stroke-width="5" stroke-linejoin="round"/><path d="M-9 22.7Q0 26.5 9 22.7" stroke="#0A0A0A" stroke-width="3" fill="none"/><path d="M-5 24.9C-5 34 5 34 5 24.9" fill="#17171F"/></g><g transform="translate(83 168) scale(-1 1)"><path d="M-10 -8H6L8 -4Q20 -3 20 3V6H-12V-6Z" fill="#17171F" stroke="#0A0A0A" stroke-width="4" stroke-linejoin="round"/><rect x="-12" y="2" width="32" height="5" fill="#F5E6C8" stroke="#0A0A0A" stroke-width="3"/><path d="M0 -8l7 3M-1 -3l8 3" stroke="#0A0A0A" stroke-width="2"/></g><g transform="translate(117 168) scale(1 1)"><path d="M-10 -8H6L8 -4Q20 -3 20 3V6H-12V-6Z" fill="#17171F" stroke="#0A0A0A" stroke-width="4" stroke-linejoin="round"/><rect x="-12" y="2" width="32" height="5" fill="#F5E6C8" stroke="#0A0A0A" stroke-width="3"/><path d="M0 -8l7 3M-1 -3l8 3" stroke="#0A0A0A" stroke-width="2"/></g><path d="M100 54.6C140 54.6 150 80.7 150 115.2C150 148.6 131 159 100 159C69 159 50 148.6 50 115.2C50 80.7 60 54.6 100 54.6Z" fill="#17171F"/><g clip-path="url(#cl-c-flannel-2)"><path d="M121 59.6C149 59.6 156 85.2 156 119C156 151.7 142.7 162 121 162C99.3 162 86 151.7 86 119C86 85.2 93 59.6 121 59.6Z" fill="#0d0d11" opacity=".9"/><path d="M70 75.5Q64 106.8 72 129.8" stroke="#68686d" stroke-width="5" fill="none" stroke-linecap="round" opacity=".7"/><ellipse cx="100" cy="123.5" rx="31" ry="34.5" fill="#F5E6C8"/><polygon points="45,98.8 88,108.8 82,151 45,153" fill="url(#pl-c-flannel-2)" stroke="#0A0A0A" stroke-width="5" stroke-linejoin="round" /><polygon points="155,98.8 112,108.8 118,151 155,153" fill="url(#pl-c-flannel-2)" stroke="#0A0A0A" stroke-width="5" stroke-linejoin="round" /><polygon points="88,106.8 70,100.8 78,122.8" fill="#861c14" stroke="#0A0A0A" stroke-width="5" stroke-linejoin="round" /><polygon points="112,106.8 130,100.8 122,122.8" fill="#861c14" stroke="#0A0A0A" stroke-width="5" stroke-linejoin="round" /></g><path d="M100 54.6C140 54.6 150 80.7 150 115.2C150 148.6 131 159 100 159C69 159 50 148.6 50 115.2C50 80.7 60 54.6 100 54.6Z" fill="none" stroke="#0A0A0A" stroke-width="5"/><ellipse cx="86" cy="82.788" rx="19" ry="17" fill="#0A0A0A" stroke="#0A0A0A" stroke-width="6"/><ellipse cx="114" cy="82.788" rx="19" ry="17" fill="#0A0A0A" stroke="#0A0A0A" stroke-width="6"/><ellipse cx="100" cy="94.788" rx="21.6" ry="12" fill="#0A0A0A" stroke="#0A0A0A" stroke-width="6"/><ellipse cx="86" cy="82.788" rx="19" ry="17" fill="#F5E6C8"/><ellipse cx="114" cy="82.788" rx="19" ry="17" fill="#F5E6C8"/><ellipse cx="100" cy="94.788" rx="21.6" ry="12" fill="#F5E6C8"/><circle cx="86" cy="84.788" r="9" fill="#fff" stroke="#0A0A0A" stroke-width="3.5"/><circle cx="114" cy="84.788" r="9" fill="#fff" stroke="#0A0A0A" stroke-width="3.5"/><circle cx="87" cy="85.788" r="4.05" fill="#0A0A0A"/><circle cx="115" cy="85.788" r="4.05" fill="#0A0A0A"/><polygon points="84.6,97.8 115.4,97.8 110.8,117.9 89.2,117.9" fill="#7a0f12" stroke="#0A0A0A" stroke-width="5" stroke-linejoin="round" /><polygon points="82.6,93.8 117.4,93.8 102,105.8" fill="#FF8A1F" stroke="#0A0A0A" stroke-width="5" stroke-linejoin="round" /><polygon points="88.9,112.4 111.1,112.4 101,125.2" fill="#e0791b" stroke="#0A0A0A" stroke-width="5" stroke-linejoin="round" /><g transform="translate(143 102.6) rotate(-155)"><path d="M-10 -4C-15 18.9 -6 37.8 0 37.8C6 37.8 15 18.9 10 -4Z" fill="#C0281C" stroke="#0A0A0A" stroke-width="5" stroke-linejoin="round"/><path d="M-9 22.7Q0 26.5 9 22.7" stroke="#0A0A0A" stroke-width="3" fill="none"/><path d="M-5 24.9C-5 34 5 34 5 24.9" fill="#17171F"/></g></g></svg>