<svg xmlns="http://www.w3.org/2000/svg" viewBox="-15 -25 230 230" width="256" height="256"><g transform="rotate(8 100 174)"><defs><clipPath id="cl-guitarist-3"><path d="M100 65.5C142.5 65.5 153.1 91.1 153.1 125C153.1 157.8 132.9 168 100 168C67.1 168 46.9 157.8 46.9 125C46.9 91.1 57.5 65.5 100 65.5Z"/></clipPath></defs><ellipse cx="100" cy="182" rx="50.5" ry="7" fill="#0A0A0A" opacity="0.28"/><g transform="translate(54.3 112.7) rotate(108)"><path d="M-10 -4C-15 19.7 -6 39.5 0 39.5C6 39.5 15 19.7 10 -4Z" fill="#17171F" stroke="#0A0A0A" stroke-width="5" stroke-linejoin="round"/></g><g transform="translate(83 174) scale(-1 1)"><path d="M-10 -16H6L8 -4Q20 -3 20 3V6H-12V-14Z" fill="#17171F" stroke="#0A0A0A" stroke-width="4" stroke-linejoin="round"/><rect x="-12" y="2" width="32" height="5" fill="#F5E6C8" stroke="#0A0A0A" stroke-width="3"/><circle cx="-2" cy="-10" r="3" fill="#B4FF1A"/><path d="M0 -8l7 3M-1 -3l8 3" stroke="#0A0A0A" stroke-width="2"/></g><g transform="translate(117 174) scale(1 1)"><path d="M-10 -16H6L8 -4Q20 -3 20 3V6H-12V-14Z" fill="#17171F" stroke="#0A0A0A" stroke-width="4" stroke-linejoin="round"/><rect x="-12" y="2" width="32" height="5" fill="#F5E6C8" stroke="#0A0A0A" stroke-width="3"/><circle cx="-2" cy="-10" r="3" fill="#B4FF1A"/><path d="M0 -8l7 3M-1 -3l8 3" stroke="#0A0A0A" stroke-width="2"/></g><path d="M100 65.5C142.5 65.5 153.1 91.1 153.1 125C153.1 157.8 132.9 168 100 168C67.1 168 46.9 157.8 46.9 125C46.9 91.1 57.5 65.5 100 65.5Z" fill="#17171F"/><g clip-path="url(#cl-guitarist-3)"><path d="M122.3 70.5C152.1 70.5 159.5 95.6 159.5 128.8C159.5 160.9 145.4 171 122.3 171C99.3 171 85.1 160.9 85.1 128.8C85.1 95.6 92.6 70.5 122.3 70.5Z" fill="#0d0d11" opacity=".9"/><path d="M68.1 86Q61.7 116.8 70.2 139.3" stroke="#68686d" stroke-width="5" fill="none" stroke-linecap="round" opacity=".7"/><path d="M68.1 112.7H131.9Q138.3 168 100 170Q61.7 168 68.1 112.7Z" fill="#FFF8EC"/><path d="M41.54379999999999 119.17675200000002Q100 133.17675200000002 158.45620000000002 119.17675200000002L158.45620000000002 154L41.54379999999999 154Z" fill="#9B4DFF" stroke="#0A0A0A" stroke-width="5"/><path d="M82 124.17675200000002Q100 135.17675200000002 118 124.17675200000002" stroke="#6d36b3" stroke-width="5" fill="none"/><path d="M86 126.95100800000002a14 14 0 1 1 28 0v6h-6v6h-16v-6h-6z" fill="#F5E6C8" stroke="#0A0A0A" stroke-width="3"/><circle cx="94" cy="124.95100800000002" r="4" fill="#0A0A0A"/><circle cx="106" cy="124.95100800000002" r="4" fill="#0A0A0A"/></g><path d="M100 65.5C142.5 65.5 153.1 91.1 153.1 125C153.1 157.8 132.9 168 100 168C67.1 168 46.9 157.8 46.9 125C46.9 91.1 57.5 65.5 100 65.5Z" fill="none" stroke="#0A0A0A" stroke-width="5"/><path d="M78 119.2Q100 143.2 122 119.2" stroke="#E9B83B" stroke-width="4" fill="none" stroke-dasharray="4 2"/><circle cx="100" cy="137.2" r="5" fill="#E9B83B" stroke="#0A0A0A" stroke-width="2"/><ellipse cx="86" cy="93.17675200000002" rx="19" ry="17" fill="#0A0A0A" stroke="#0A0A0A" stroke-width="6"/><ellipse cx="114" cy="93.17675200000002" rx="19" ry="17" fill="#0A0A0A" stroke="#0A0A0A" stroke-width="6"/><ellipse cx="100" cy="105.17675200000002" rx="19.6" ry="12" fill="#0A0A0A" stroke="#0A0A0A" stroke-width="6"/><ellipse cx="86" cy="93.17675200000002" rx="19" ry="17" fill="#FFF8EC"/><ellipse cx="114" cy="93.17675200000002" rx="19" ry="17" fill="#FFF8EC"/><ellipse cx="100" cy="105.17675200000002" rx="19.6" ry="12" fill="#FFF8EC"/><rect x="68" y="86.17675200000002" width="64" height="6" fill="#0A0A0A"/><rect x="70" y="90.17675200000002" width="26" height="14" fill="#0A0A0A"/><rect x="74" y="94.17675200000002" width="4" height="4" fill="#22E6FF"/><rect x="78" y="90.17675200000002" width="4" height="4" fill="#fff" opacity=".7"/><rect x="92" y="104.17675200000002" width="4" height="4" fill="#0A0A0A"/><rect x="104" y="90.17675200000002" width="26" height="14" fill="#0A0A0A"/><rect x="108" y="94.17675200000002" width="4" height="4" fill="#22E6FF"/><rect x="112" y="90.17675200000002" width="4" height="4" fill="#fff" opacity=".7"/><rect x="126" y="104.17675200000002" width="4" height="4" fill="#0A0A0A"/><rect x="96" y="92.17675200000002" width="8" height="4" fill="#0A0A0A"/><polygon points="90.1,106.2 109.9,106.2 102,117.9" fill="#FF8A1F" stroke="#0A0A0A" stroke-width="5" stroke-linejoin="round" /><path d="M95.1 109.2H102" stroke="#ffc58f" stroke-width="3" stroke-linecap="round"/><polygon points="49.5,89.2 44.2,73.5 70,47.5 84,59.5 90,39.5 100,61.5 100,79.2 82,71.2" fill="#FF3DAE" stroke="#0A0A0A" stroke-width="5" stroke-linejoin="round" /><polygon points="100,61.5 108,35.5 120,57.5 136,45.5 154.2,75.5 147.8,91.2 120,73.2 100,79.2" fill="#22E6FF" stroke="#0A0A0A" stroke-width="5" stroke-linejoin="round" /><g transform="translate(96 131.1) rotate(26) scale(.78)"><rect x="-104" y="-4.5" width="104" height="9" fill="#6b3f1d" stroke="#0A0A0A" stroke-width="3.5"/><path d="M-100 -4V4M-86 -4V4M-72 -4V4M-58 -4V4M-44 -4V4" stroke="#F5E6C8" stroke-width="1.5" opacity=".7"/><polygon points="-104,-6 -126,-14 -128,4 -104,6" fill="#FF3DAE" stroke="#0A0A0A" stroke-width="3.5" stroke-linejoin="round"/><polygon points="0,-9 60,-34 68,-22 16,0 68,22 60,34 0,9" fill="#FF3DAE" stroke="#0A0A0A" stroke-width="4.5" stroke-linejoin="round"/><polygon points="6,-5 56,-27 60,-22 14,-1" fill="#22E6FF"/><polygon points="6,5 56,27 60,22 14,1" fill="#9B4DFF"/><rect x="8" y="-5" width="10" height="10" fill="#0A0A0A"/><path d="M-100 -1.5H20M-100 1.5H20" stroke="#ddd" stroke-width=".9"/><circle cx="36" cy="-11" r="3" fill="#FFE81F" stroke="#0A0A0A" stroke-width="1.5"/><circle cx="42" cy="11" r="3" fill="#FFE81F" stroke="#0A0A0A" stroke-width="1.5"/></g><g transform="translate(145.7 112.7) rotate(-60)"><path d="M-10 -4C-15 19.7 -6 39.5 0 39.5C6 39.5 15 19.7 10 -4Z" fill="#17171F" stroke="#0A0A0A" stroke-width="5" stroke-linejoin="round"/></g></g></svg>