<svg xmlns="http://www.w3.org/2000/svg" viewBox="-15 -25 230 230" width="256" height="256"><g transform="rotate(-4 100 174)"><defs><clipPath id="cl-kickflip-0"><path d="M100 58.3C140 58.3 150 85 150 120.2C150 154.3 131 165 100 165C69 165 50 154.3 50 120.2C50 85 60 58.3 100 58.3Z"/></clipPath></defs><ellipse cx="100" cy="182" rx="47.5" ry="7" fill="#0A0A0A" opacity="0.28"/><path d="M52.5 105.1Q47.5 52.3 100 50.3Q152.5 52.3 147.5 105.1Z" fill="#6d36b3" stroke="#0A0A0A" stroke-width="5"/><g transform="translate(83 174) scale(-1 1)"><path d="M-10 -8H6L8 -4Q20 -3 20 3V6H-12V-6Z" fill="#22E6FF" stroke="#0A0A0A" stroke-width="4" stroke-linejoin="round"/><rect x="-12" y="2" width="32" height="5" fill="#fff" stroke="#0A0A0A" stroke-width="3"/><path d="M0 -8l7 3M-1 -3l8 3" stroke="#0A0A0A" stroke-width="2"/></g><g transform="translate(117 174) scale(1 1)"><path d="M-10 -8H6L8 -4Q20 -3 20 3V6H-12V-6Z" fill="#22E6FF" stroke="#0A0A0A" stroke-width="4" stroke-linejoin="round"/><rect x="-12" y="2" width="32" height="5" fill="#fff" stroke="#0A0A0A" stroke-width="3"/><path d="M0 -8l7 3M-1 -3l8 3" stroke="#0A0A0A" stroke-width="2"/></g><path d="M100 58.3C140 58.3 150 85 150 120.2C150 154.3 131 165 100 165C69 165 50 154.3 50 120.2C50 85 60 58.3 100 58.3Z" fill="#17171F"/><g clip-path="url(#cl-kickflip-0)"><path d="M121 63.3C149 63.3 156 89.5 156 124C156 157.5 142.7 167.9 121 167.9C99.3 167.9 86 157.5 86 124C86 89.5 93 63.3 121 63.3Z" fill="#0d0d11" opacity=".9"/><path d="M70 79.6Q64 111.6 72 135.1" stroke="#68686d" stroke-width="5" fill="none" stroke-linecap="round" opacity=".7"/><ellipse cx="100" cy="124.7" rx="23" ry="42.7" fill="#F5E6C8"/></g><path d="M100 58.3C140 58.3 150 85 150 120.2C150 154.3 131 165 100 165C69 165 50 154.3 50 120.2C50 85 60 58.3 100 58.3Z" fill="none" stroke="#0A0A0A" stroke-width="5"/><path d="M65 107.09440000000001Q100 123.09440000000001 135 107.09440000000001L164 143Q164 161 154 161L46 161Q36 161 36 143Z" fill="#9B4DFF" stroke="#0A0A0A" stroke-width="5" stroke-linejoin="round"/><path d="M74 126.6H126L132 147.9H68Z" fill="#6d36b3" stroke="#0A0A0A" stroke-width="3.5" stroke-linejoin="round"/><path d="M92 115.09440000000001v22M108 115.09440000000001v18" stroke="#FFE81F" stroke-width="3" stroke-linecap="round"/><rect x="36" y="153" width="128" height="8" fill="#6d36b3" opacity=".7"/><ellipse cx="86" cy="87.09440000000001" rx="19" ry="17" fill="#0A0A0A" stroke="#0A0A0A" stroke-width="6"/><ellipse cx="114" cy="87.09440000000001" rx="19" ry="17" fill="#0A0A0A" stroke="#0A0A0A" stroke-width="6"/><ellipse cx="100" cy="99.09440000000001" rx="20" ry="12" fill="#0A0A0A" stroke="#0A0A0A" stroke-width="6"/><ellipse cx="86" cy="87.09440000000001" rx="19" ry="17" fill="#F5E6C8"/><ellipse cx="114" cy="87.09440000000001" rx="19" ry="17" fill="#F5E6C8"/><ellipse cx="100" cy="99.09440000000001" rx="20" ry="12" fill="#F5E6C8"/><circle cx="86" cy="89.09440000000001" r="8" fill="#fff" stroke="#0A0A0A" stroke-width="3.5"/><circle cx="114" cy="89.09440000000001" r="8" fill="#fff" stroke="#0A0A0A" stroke-width="3.5"/><circle cx="87" cy="90.09440000000001" r="3.6" fill="#0A0A0A"/><circle cx="115" cy="90.09440000000001" r="3.6" fill="#0A0A0A"/><polygon points="89,100.1 111,100.1 102,113.1" fill="#FF8A1F" stroke="#0A0A0A" stroke-width="5" stroke-linejoin="round" /><path d="M94 103.1H102" stroke="#ffc58f" stroke-width="3" stroke-linecap="round"/><circle cx="100" cy="18.3" r="10" fill="#FF3A1F" stroke="#0A0A0A" stroke-width="5"/><path d="M57 64.3Q60 24.3 100 22.3Q140 24.3 143 64.3Z" fill="#FFE81F" stroke="#0A0A0A" stroke-width="5"/><rect x="54" y="60.3" width="92" height="15" rx="5" fill="#a69714" stroke="#0A0A0A" stroke-width="5"/><line x1="67" y1="62.3" x2="67" y2="73.3" stroke="#0A0A0A" stroke-width="2" opacity=".5"/><line x1="78" y1="62.3" x2="78" y2="73.3" stroke="#0A0A0A" stroke-width="2" opacity=".5"/><line x1="89" y1="62.3" x2="89" y2="73.3" stroke="#0A0A0A" stroke-width="2" opacity=".5"/><line x1="100" y1="62.3" x2="100" y2="73.3" stroke="#0A0A0A" stroke-width="2" opacity=".5"/><line x1="111" y1="62.3" x2="111" y2="73.3" stroke="#0A0A0A" stroke-width="2" opacity=".5"/><line x1="122" y1="62.3" x2="122" y2="73.3" stroke="#0A0A0A" stroke-width="2" opacity=".5"/><line x1="133" y1="62.3" x2="133" y2="73.3" stroke="#0A0A0A" stroke-width="2" opacity=".5"/><g transform="translate(57 107.4) rotate(40)"><path d="M-10 -4C-15 19.3 -6 38.6 0 38.6C6 38.6 15 19.3 10 -4Z" fill="#9B4DFF" stroke="#0A0A0A" stroke-width="5" stroke-linejoin="round"/><path d="M-9 23.2Q0 27 9 23.2" stroke="#0A0A0A" stroke-width="3" fill="none"/><path d="M-5 25.5C-5 34.8 5 34.8 5 25.5" fill="#17171F"/></g><g transform="translate(143 107.4) rotate(-30)"><path d="M-10 -4C-15 19.3 -6 38.6 0 38.6C6 38.6 15 19.3 10 -4Z" fill="#9B4DFF" stroke="#0A0A0A" stroke-width="5" stroke-linejoin="round"/><path d="M-9 23.2Q0 27 9 23.2" stroke="#0A0A0A" stroke-width="3" fill="none"/><path d="M-5 25.5C-5 34.8 5 34.8 5 25.5" fill="#17171F"/></g><g transform="translate(100 186) rotate(0) scale(1 1)"><path d="M-50 -2Q-58 -10 -50 -12L50 -12Q58 -10 50 -2Z" fill="#2a2a2a" stroke="#0A0A0A" stroke-width="4" stroke-linejoin="round"/><path d="M-50 -2L50 -2" stroke="#B4FF1A" stroke-width="3"/><rect x="-36" y="-2" width="16" height="5" fill="#9aa0a6" stroke="#0A0A0A" stroke-width="2.5"/><rect x="20" y="-2" width="16" height="5" fill="#9aa0a6" stroke="#0A0A0A" stroke-width="2.5"/><circle cx="-28" cy="7" r="6" fill="#FFE81F" stroke="#0A0A0A" stroke-width="3"/><circle cx="28" cy="7" r="6" fill="#FFE81F" stroke="#0A0A0A" stroke-width="3"/></g></g></svg>